<svg xmlns="http://www.w3.org/2000/svg" enable-background="new 0 0 900 600" viewBox="0 0 900 600"><path fill="#d0d4d8" fill-rule="evenodd" d="M580.5 588.38H324.4v-10.9c0-7.1 5.8-12.9 12.9-12.9h230.4c7.1 0 12.9 5.8 12.9 12.9v10.9z" clip-rule="evenodd"/><path fill="#c1c7cc" fill-rule="evenodd" d="M553.8 564.58H352.3l11.9-69.7h177.7z" clip-rule="evenodd"/><path fill="#d0d4d8" fill-rule="evenodd" d="M773.6 24.68c0-7.2-5.8-13-13-13h-615c-7.2 0-13 5.8-13 13V481.88c0 7.2 5.8 13 13 13h615c7.2 0 13-5.8 13-13V24.68z" clip-rule="evenodd"/><g><path fill="#fff" fill-rule="evenodd" d="M153.12 391.504h599.9v-359.3h-599.9z" clip-rule="evenodd"/></g><g transform="translate(16.03 16.95)"><path fill="#fff" fill-rule="evenodd" d="M137 374.6h600V15.2H137z" clip-rule="evenodd"/><defs><filter id="a" filterUnits="userSpaceOnUse"><feColorMatrix values="1 0 0 0 0 0 1 0 0 0 0 0 1 0 0 0 0 0 1 0"/></filter></defs><mask id="b" maskUnits="userSpaceOnUse"><g filter="url(#a)"><path fill="#fff" fill-rule="evenodd" d="M137 374.6h600V15.2H137z" clip-rule="evenodd"/></g></mask></g><g fill-rule="evenodd" clip-rule="evenodd"><path fill="#a4abb3" d="M153.1 32.2h600v25.1h-600z"/><g fill="#e0e2e5"><path d="M172.8 113h103v20.1h-103zM172.8 183.2h103v20.1h-103zM172.8 218.3h103v20.1h-103zM172.8 77.9h103V98h-103zM172.8 148.1h103v20.1h-103z"/></g><path fill="#d0d4d8" d="M629.9 77.9h103V98h-103z"/><path fill="#e0e2e5" d="M298.3 185.7h309v132.9h-309z"/><path fill="#b2b9c0" d="M315.9 203.3h121.8v25.1H315.9zM315.9 238.4h281.3v62.7H315.9z"/><path fill="#e0e2e5" d="M298.3 77.9h309v95.3h-309z"/><path fill="#b2b9c0" d="M315.9 95.5h121.8v25.1H315.9z"/><path fill="#e0e2e5" d="M298.3 331.2h309v60.2h-309z"/><path fill="#b2b9c0" d="M315.9 348.7h121.8v25.1H315.9z"/></g></svg>