<svg xmlns="http://www.w3.org/2000/svg" viewBox="0 0 1200 1200"><switch><g><path fill="#67a9dd" fill-rule="evenodd" d="M557.9 1131.4c-.6-2-1.3-3.7-1.9-5.2-5.1-12.1-13.5-25.7-23.5-39.8-14.3-20.3-31.7-41.9-46.3-62-31.2-43-49.8-73.7-49.8-110.6 0-24.6 8.3-47.1 24.9-67.6l125.9-.6c26.6 0 55.6 1.1 73.5.6 16.6 20.5 24.9 43 24.9 67.6 0 36.9-18.7 67.6-49.8 110.6-16.1 22.3-35.6 46.2-50.6 68.3-8.3 12.2-15.2 23.9-19.5 34.5-.5 1.2-1 2.6-1.5 4.3-.2.6-1.3 3.4-3.2 8.2-1.9-4.9-2.9-7.6-3.1-8.3z" clip-rule="evenodd"/><path fill="#a1c6ea" fill-rule="evenodd" d="M555.9 1019.6c-.4-1.2-.8-2.3-1.2-3.2-3.1-7.4-8.3-15.6-14.4-24.2-8.8-12.4-19.5-25.5-28.5-37.8-19.2-26.2-30.7-44.9-30.7-67.3 0-15 5.1-28.7 15.3-41.1l77.5-.3c16.4 0 34.2.7 45.2.3 10.2 12.5 15.3 26.2 15.3 41.1 0 22.4-11.5 41.1-30.7 67.3-9.9 13.6-21.9 28.1-31.2 41.6-5.1 7.4-9.4 14.6-12 21-.3.7-.6 1.6-.9 2.6-.1.4-.8 2-2 5-1-2.9-1.6-4.6-1.7-5z" clip-rule="evenodd"/><path fill="#d2e2f6" fill-rule="evenodd" d="M556.8 945c-.2-.7-.4-1.3-.6-1.8-1.6-4.2-4.2-8.9-7.2-13.9-4.4-7.1-9.7-14.6-14.2-21.6-9.6-15-15.3-25.6-15.3-38.5 0-8.5 2.6-16.4 7.7-23.5l38.8-.2c8.2 0 17.1.4 22.6.2 5.1 7.1 7.7 15 7.7 23.5 0 12.8-5.8 23.5-15.3 38.5-5 7.7-11 16.1-15.6 23.8-2.6 4.3-4.7 8.3-6 12-.2.4-.3.9-.5 1.5-.1.2-.4 1.2-1 2.8-.7-1.6-1-2.5-1.1-2.8z" clip-rule="evenodd"/><path fill="#eff1f2" d="M572.6 177.5l-11.8-9.3-11.7 9.5c-4.6 3.8-113.6 93.7-113.6 201.5v339.3L302.2 852h517.6L686.5 718.5V379.2c0-111.3-109.2-198.1-113.9-201.7z"/><path fill="#979ea4" d="M572.5 175.3l-11.8-9.5-11.6 9.8c-2.2 1.8-27.8 23.7-54.2 57.9-2.2 2.9-4.5 5.9-6.7 9 4.6 12.8 41.4 25.6 72.4 25.6 30.9 0 68.3-12.8 74.6-24.8-2.7-3.7-5.4-7.3-8.1-10.8-26.4-34.2-52.4-55.4-54.6-57.2z"/><path fill="#a4abb3" d="M567.9 377.5c-15 0-27.2 12.2-27.2 27.2s12.2 27.2 27.2 27.2 27.2-12.2 27.2-27.2-12.2-27.2-27.2-27.2zm0-23.9c28.2 0 51.1 22.9 51.1 51.1s-22.9 51.1-51.1 51.1-51.1-22.9-51.1-51.1 22.9-51.1 51.1-51.1z"/><path fill="#8a9097" fill-rule="evenodd" d="M557.8 711.4h32l-32 210.9-32-210.9z" clip-rule="evenodd"/><path fill="#d0d4d8" d="M435.4 677.8L269.2 888.7l130.7-36.9h34.5z"/><path fill="#a4abb3" d="M686.6 678.2l166.1 210.9-130.6-36.9h-34.6z"/></g></switch></svg>