<?xml version="1.0" standalone="no"?>
<!DOCTYPE svg PUBLIC "-//W3C//DTD SVG 20010904//EN"
 "http://www.w3.org/TR/2001/REC-SVG-20010904/DTD/svg10.dtd">
<svg version="1.0" xmlns="http://www.w3.org/2000/svg"
 width="192.000000pt" height="192.000000pt" viewBox="0 0 192.000000 192.000000"
 preserveAspectRatio="xMidYMid meet">

<g transform="translate(0.000000,192.000000) scale(0.100000,-0.100000)"
fill="#000000" stroke="none">
<path d="M435 1700 l-270 -67 -3 -241 c-1 -133 1 -242 5 -242 5 0 77 18 161
39 l152 39 0 -534 0 -534 480 0 480 0 0 534 0 534 153 -39 c83 -21 155 -39
160 -39 4 0 6 109 5 241 l-3 242 -275 68 c-151 37 -275 66 -276 66 0 -1 -8
-23 -18 -49 -32 -86 -135 -158 -226 -158 -93 0 -196 73 -227 161 -10 27 -20
49 -23 48 -3 -1 -126 -32 -275 -69z m257 -75 c15 -25 48 -59 73 -77 123 -87
262 -89 383 -6 38 27 95 91 104 120 3 7 82 -9 216 -42 l212 -52 0 -158 0 -158
-152 39 c-84 21 -156 39 -160 39 -5 0 -8 -245 -8 -545 l0 -545 -400 0 -400 0
0 545 c0 300 -3 545 -7 545 -5 0 -77 -18 -161 -39 l-152 -39 0 158 0 158 203
50 c111 28 207 51 212 51 6 0 22 -20 37 -44z"/>
<path d="M1120 1280 l0 -40 80 0 80 0 0 40 0 40 -80 0 -80 0 0 -40z"/>
<path d="M908 1061 c-47 -15 -94 -49 -106 -76 -7 -14 -12 -46 -12 -69 0 -34 6
-51 28 -74 27 -29 54 -40 179 -72 48 -12 65 -42 39 -69 -28 -27 -131 -21 -195
12 -29 15 -55 27 -57 27 -2 0 -4 -24 -4 -54 l0 -53 58 -17 c196 -55 365 35
324 172 -15 51 -53 75 -155 101 -91 23 -97 26 -97 55 0 50 108 60 190 17 22
-11 43 -21 45 -21 3 0 5 23 5 50 0 46 -3 51 -27 61 -38 14 -182 21 -215 10z"/>
</g>
</svg>
