<?xml version="1.0" standalone="no"?>
<!DOCTYPE svg PUBLIC "-//W3C//DTD SVG 20010904//EN"
 "http://www.w3.org/TR/2001/REC-SVG-20010904/DTD/svg10.dtd">
<svg version="1.0" xmlns="http://www.w3.org/2000/svg"
 width="192.000000pt" height="192.000000pt" viewBox="0 0 192.000000 192.000000"
 preserveAspectRatio="xMidYMid meet">

<g transform="translate(0.000000,192.000000) scale(0.100000,-0.100000)"
fill="#000000" stroke="none">
<path d="M440 1700 l-275 -68 -3 -241 c-1 -132 0 -241 3 -241 9 0 281 69 299
76 15 6 16 -37 16 -530 l0 -536 480 0 480 0 0 536 c0 505 1 535 18 530 9 -3
73 -19 142 -36 69 -17 133 -33 143 -36 16 -5 17 9 15 236 l-3 242 -275 68
-275 68 -18 -49 c-33 -87 -135 -159 -227 -159 -92 0 -194 72 -227 159 l-18 48
-275 -67z m235 -50 c11 -34 97 -114 150 -140 41 -19 66 -24 135 -24 78 -1 90
2 149 34 58 31 130 103 143 141 3 9 66 -3 216 -41 l212 -52 0 -160 c0 -144 -2
-160 -16 -154 -18 7 -289 76 -298 76 -4 0 -6 -245 -6 -545 l0 -545 -400 0
-400 0 0 546 c0 515 -1 545 -17 540 -10 -3 -74 -19 -143 -36 -69 -17 -133 -33
-142 -36 -17 -5 -18 7 -18 154 l0 160 198 50 c108 28 205 51 214 51 9 1 20 -8
23 -19z"/>
<path d="M1120 1280 l0 -40 80 0 80 0 0 40 0 40 -80 0 -80 0 0 -40z"/>
<path d="M674 985 l66 -94 -58 -83 c-32 -46 -62 -89 -66 -95 -5 -10 6 -13 46
-13 l53 0 39 60 c21 33 40 60 42 60 2 0 22 -27 44 -60 l41 -60 55 0 56 0 -66
95 c-36 52 -66 97 -66 100 0 3 29 46 65 95 l65 90 -55 0 -55 0 -36 -55 c-20
-30 -40 -55 -44 -55 -4 0 -24 25 -44 55 l-36 55 -56 0 -55 0 65 -95z"/>
<path d="M1050 890 l0 -190 135 0 135 0 0 35 0 35 -85 0 -85 0 0 155 0 155
-50 0 -50 0 0 -190z"/>
</g>
</svg>
